:FULLY-SPECIFIED
:FORCE-ALL-JOINTS-BE-3DOF
:DEGREES
238
root 5.42602 15.6022 -25.8536 10.0243 21.324 -7.30273
lfemur -40.4292 35.0535 -4.23701
ltibia 54.2728 0 0
lfoot -14.6473 7.4163 0
ltoes -9.60275 0 0
rfemur -18.2361 -13.2516 5.40243
rtibia 33.9762 0 0
rfoot -40.6636 -6.64329 0
rtoes 60.6942 0 0
lowerback 1.09716 -2.24548 2.69669
upperback -1.053 -2.89361 2.97863
thorax -1.66071 -1.45524 1.61992
lowerneck -10.9762 -1.7739 0.427722
upperneck 1.22952 -2.41693 0.149637
head 2.26658 -1.1955 -0.148604
lclavicle 1.81044e-14 -1.26733e-14 0
lhumerus -54.8635 -35.4986 121.954
lradius 62.0662 0 0
lwrist 17.5792 0 0
lhand 8.76213 13.816 0
lfingers 7.12502 0 0
lthumb 33.9386 40.499 0
rclavicle 1.81044e-14 -1.26733e-14 0
rhumerus -35.5927 -12.3293 -70.2879
rradius 101.322 0 0
rwrist -40.0806 0 0
rhand 17.1891 -32.4396 0
rfingers 7.12502 0 0
rthumb 40.1354 -763.402 0
239
root 5.55408 15.6385 -25.8308 9.71261 23.5828 -7.46527
lfemur -41.063 34.6557 -5.60423
ltibia 53.8475 0 0
lfoot -15.2445 7.3639 0
ltoes -5.36768 0 0
rfemur -16.1325 -10.738 5.26461
rtibia 32.6306 0 0
rfoot -43.2413 -10.4341 0
rtoes 61.2474 0 0
lowerback 0.949092 -2.38805 2.78182
upperback -1.1988 -3.07576 3.25538
thorax -1.7159 -1.54522 1.8587
lowerneck -10.6589 -2.08226 0.384609
upperneck 1.41065 -2.81913 0.0969125
head 2.26691 -1.39745 -0.175684
lclavicle 1.74906e-14 -1.09246e-14 0
lhumerus -55.3001 -34.5249 122.312
lradius 62.4323 0 0
lwrist 17.3853 0 0
lhand 7.33939 13.2095 0
lfingers 7.12502 0 0
lthumb 32.5859 40.1816 0
rclavicle 1.74906e-14 -1.09246e-14 0
rhumerus -35.8182 -15.6093 -69.5186
rradius 98.1544 0 0
rwrist -41.6363 0 0
rhand 5.60822 -33.4825 0
rfingers 7.12502 0 0
rthumb 29.4038 -768.483 0
240
root 5.69156 15.6772 -25.8061 9.3813 25.9562 -7.55527
lfemur -41.5103 34.049 -7.01703
ltibia 53.2177 0 0
lfoot -15.9023 7.13065 0
ltoes -0.484691 0 0
rfemur -14.0457 -8.09217 5.06926
rtibia 31.5012 0 0
rfoot -45.4887 -14.2185 0
rtoes 61.4112 0 0
lowerback 0.801824 -2.54096 2.83306
upperback -1.33797 -3.27255 3.50633
thorax -1.76475 -1.64219 2.09021
lowerneck -10.3322 -2.41287 0.348311
upperneck 1.6136 -3.25305 0.0503392
head 2.27424 -1.61474 -0.203567
lclavicle 1.64426e-14 -9.11202e-15 0
lhumerus -55.7422 -33.5562 122.639
lradius 62.7775 0 0
lwrist 17.2441 0 0
lhand 5.92407 12.6123 0
lfingers 7.12502 0 0
lthumb 31.2401 39.87 0
rclavicle 1.64426e-14 -9.11202e-15 0
rhumerus -36.0049 -18.7858 -68.5454
rradius 94.5463 0 0
rwrist -42.5119 0 0
rhand -6.585 -34.3378 0
rfingers 7.12502 0 0
rthumb 18.1162 -773.688 0
241
root 5.83415 15.718 -25.7815 9.06557 28.3682 -7.54438
lfemur -41.7606 33.2734 -8.41908
ltibia 52.4452 0 0
lfoot -16.544 6.69297 0
ltoes 4.77869 0 0
rfemur -12.1605 -5.4906 4.8268
rtibia 30.807 0 0
rfoot -46.9526 -17.6702 0
rtoes 60.8662 0 0
lowerback 0.675312 -2.68827 2.83139
upperback -1.45835 -3.46367 3.71667
thorax -1.80561 -1.736 2.30987
lowerneck -10.0203 -2.76866 0.302486
upperneck 1.82069 -3.72055 0.0152769
head 2.28772 -1.84838 -0.228273
lclavicle 1.49269e-14 -7.47094e-15 0
lhumerus -56.1224 -32.6668 122.894
lradius 63.074 0 0
lwrist 17.1651 0 0
lhand 4.63263 12.0611 0
lfingers 7.12502 0 0
lthumb 30.0121 39.579 0
rclavicle 1.49269e-14 -7.47094e-15 0
rhumerus -36.1981 -21.5694 -67.5129
rradius 90.5817 0 0
rwrist -42.3575 0 0
rhand -18.2677 -34.8076 0
rfingers 7.12502 0 0
rthumb 7.31349 -778.431 0
242
root 5.97698 15.7603 -25.7591 8.81046 30.7381 -7.40345
lfemur -41.8266 32.3973 -9.74969
ltibia 51.6271 0 0
lfoot -17.0686 6.0353 0
ltoes 10.0606 0 0
rfemur -10.6947 -3.14807 4.55482
rtibia 30.8046 0 0
rfoot -47.0884 -20.4034 0
rtoes 59.2246 0 0
lowerback 0.59434 -2.80956 2.75554
upperback -1.54622 -3.6229 3.87277
thorax -1.83767 -1.81351 2.51562
lowerneck -9.75184 -3.15593 0.223737
upperneck 2.00856 -4.22698 -0.00236636
head 2.3055 -2.10118 -0.244733
lclavicle 1.29306e-14 -6.30045e-15 0
lhumerus -56.355 -31.9425 123.035
lradius 63.2913 0 0
lwrist 17.1531 0 0
lhand 3.60136 11.5964 0
lfingers 7.12502 0 0
lthumb 29.0316 39.3236 0
rclavicle 1.29306e-14 -6.30045e-15 0
rhumerus -36.4665 -23.626 -66.625
rradius 86.3696 0 0
rwrist -40.7861 0 0
rhand -28.0303 -34.6569 0
rfingers 7.12502 0 0
rthumb -1.69866 -781.982 0
243
root 6.11463 15.8042 -25.7421 8.6708 32.9802 -7.1025
lfemur -41.744 31.517 -10.9438
ltibia 50.8955 0 0
lfoot -17.351 5.15004 0
ltoes 14.9049 0 0
rfemur -9.8996 -1.31773 4.27798
rtibia 31.7881 0 0
rfoot -45.2598 -21.9724 0
rtoes 56.0306 0 0
lowerback 0.588524 -2.87985 2.58195
upperback -1.5863 -3.71812 3.96222
thorax -1.86092 -1.85864 2.70796
lowerneck -9.56054 -3.58444 0.0816116
upperneck 2.14816 -4.78118 0.0038659
head 2.32481 -2.37782 -0.246784
lclavicle 1.0461e-14 -5.96354e-15 0
lhumerus -56.3364 -31.4805 123.01
lradius 63.3965 0 0
lwrist 17.2087 0 0
lhand 2.98637 11.2617 0
lfingers 7.12502 0 0
lthumb 28.4475 39.1191 0
rclavicle 1.0461e-14 -5.96354e-15 0
rhumerus -36.9016 -24.5766 -66.1448
rradius 82.0446 0 0
rwrist -37.374 0 0
rhand -34.1763 -33.6137 0
rfingers 7.12502 0 0
rthumb -7.34973 -783.466 0
244
root 6.13193 15.8101 -25.7406 8.66331 33.2546 -7.04681
lfemur -41.7135 31.4002 -11.0821
ltibia 50.8079 0 0
lfoot -17.3635 5.00474 0
ltoes 15.4964 0 0
rfemur -9.86898 -1.13371 4.23785
rtibia 32.032 0 0
rfoot -44.7654 -22.0392 0
rtoes 55.4052 0 0
lowerback 0.595667 -2.88245 2.54662
upperback -1.58595 -3.72223 3.96677
thorax -1.86235 -1.86032 2.73278
lowerneck -9.54623 -3.64508 0.055979
upperneck 2.16148 -4.85892 0.00646776
head 2.32793 -2.41663 -0.245799
lclavicle 9.98143e-15 -6.03559e-15 0
lhumerus -56.3047 -31.452 122.99
lradius 63.3964 0 0
lwrist 17.2258 0 0
lhand 2.95435 11.2335 0
lfingers 7.12502 0 0
lthumb 28.4172 39.0989 0
rclavicle 9.98143e-15 -6.03559e-15 0
rhumerus -36.9758 -24.5613 -66.1198
rradius 81.456 0 0
rwrist -36.6732 0 0
rhand -34.5556 -33.356 0
rfingers 7.12502 0 0
rthumb -7.69423 -783.402 0
245
root 6.18042 15.8272 -25.7371 8.64485 34.0069 -6.87171
lfemur -41.5815 31.0459 -11.4517
ltibia 50.5434 0 0
lfoot -17.389 4.54076 0
ltoes 17.2022 0 0
rfemur -9.84873 -0.650291 4.10719
rtibia 32.8573 0 0
rfoot -43.021 -22.0777 0
rtoes 53.3358 0 0
lowerback 0.621804 -2.88261 2.42815
upperback -1.57848 -3.72471 3.97087
thorax -1.86263 -1.86039 2.80404
lowerneck -9.52017 -3.82154 -0.0214323
upperneck 2.19776 -5.08471 0.0138882
head 2.33907 -2.52935 -0.242863
lclavicle 8.18969e-15 -6.39416e-15 0
lhumerus -56.1867 -31.4089 122.916
lradius 63.3775 0 0
lwrist 17.2944 0 0
lhand 2.91474 11.1727 0
lfingers 7.12502 0 0
lthumb 28.3801 39.051 0
rclavicle 8.18969e-15 -6.39416e-15 0
rhumerus -37.1919 -24.3388 -66.0433
rradius 79.7128 0 0
rwrist -34.2808 0 0
rhand -35.2435 -32.4489 0
rfingers 7.12502 0 0
rthumb -8.30964 -782.931 0
246
root 6.2551 15.8543 -25.7329 8.62265 35.1383 -6.56831
lfemur -41.3011 30.4549 -11.9907
ltibia 50.1051 0 0
lfoot -17.41 3.73364 0
ltoes 19.9017 0 0
rfemur -9.93161 0.0357583 3.87814
rtibia 34.364 0 0
rfoot -39.7596 -21.8895 0
rtoes 49.645 0 0
lowerback 0.67288 -2.87153 2.21426
upperback -1.55606 -3.71428 3.9618
thorax -1.8572 -1.8532 2.9152
lowerneck -9.50221 -4.10374 -0.149795
upperneck 2.2514 -5.44522 0.0263751
head 2.35988 -2.70926 -0.237724
lclavicle 4.76601e-15 -7.19087e-15 0
lhumerus -55.9567 -31.4029 122.774
lradius 63.3179 0 0
lwrist 17.4332 0 0
lhand 2.93816 11.1095 0
lfingers 7.12502 0 0
lthumb 28.4034 38.9917 0
rclavicle 4.76601e-15 -7.19087e-15 0
rhumerus -37.5385 -23.7036 -65.92
rradius 76.8827 0 0
rwrist -29.9148 0 0
rhand -35.681 -30.7583 0
rfingers 7.12502 0 0
rthumb -8.67672 -781.734 0
247
root 6.35103 15.8899 -25.7288 8.60563 36.5597 -6.13191
lfemur -40.8428 29.6378 -12.6458
ltibia 49.5029 0 0
lfoot -17.4096 2.58247 0
ltoes 23.4508 0 0
rfemur -10.1908 0.835848 3.55295
rtibia 36.5985 0 0
rfoot -34.8804 -21.3359 0
rtoes 44.3063 0 0
lowerback 0.753348 -2.84402 1.9013
upperback -1.5133 -3.68428 3.92909
thorax -1.84346 -1.83545 3.0574
lowerneck -9.5049 -4.47911 -0.326153
upperneck 2.31669 -5.92416 0.0452773
head 2.39075 -2.94819 -0.229761
lclavicle -3.29621e-16 -8.49477e-15 0
lhumerus -55.6006 -31.4708 122.552
lradius 63.2033 0 0
lwrist 17.6515 0 0
lhand 3.07637 11.067 0
lfingers 7.12502 0 0
lthumb 28.5363 38.9337 0
rclavicle -3.29621e-16 -8.49477e-15 0
rhumerus -38.0022 -22.5297 -65.7649
rradius 73.0785 0 0
rwrist -23.4973 0 0
rhand -35.4632 -28.2396 0
rfingers 7.12502 0 0
rthumb -8.42012 -779.629 0
